# xmcd CD database file
#
# Track frame offsets:
#	150
#	24909
#	46306
#	77365
#	99249
#	119309
#	145302
#	169447
#
# Disc length: 2655 seconds
#
# Revision: 0
# Processed by: cddbd v1.5.2PL0 Copyright (c) Steve Scherf et al.
# Submitted via: CDex 1.70beta2
#
DISCID=5b0a5d08
DTITLE=Majid BEKKAS - GNAOUA Jazz
DYEAR=1900
DGENRE=Rhythmic Soul
TTITLE0=Chbakrou
TTITLE1=Mirahba
TTITLE2=Bossoyi
TTITLE3=Bania
TTITLE4=Tortohila
TTITLE5=African Blues
TTITLE6=Manandabo
TTITLE7=Mogador
EXTD=
EXTT0=
EXTT1=
EXTT2=
EXTT3=
EXTT4=
EXTT5=
EXTT6=
EXTT7=
PLAYORDER=
